<mxfile host="app.diagrams.net" agent="Mozilla/5.0 (Windows NT 10.0; Win64; x64) AppleWebKit/537.36 (KHTML, like Gecko) Chrome/136.0.0.0 Safari/537.36" version="26.2.14">
  <diagram name="Page-1" id="TZvjgmhqcYsq3U_2eEAN">
    <mxGraphModel dx="1111" dy="445" grid="1" gridSize="10" guides="1" tooltips="1" connect="1" arrows="1" fold="1" page="1" pageScale="1" pageWidth="850" pageHeight="1100" math="0" shadow="0">
      <root>
        <mxCell id="0" />
        <mxCell id="1" parent="0" />
        <mxCell id="nfQ-J31ZGW46kdmINkmE-6" value="{abstract}&lt;div&gt;&lt;br&gt;&lt;/div&gt;&lt;div&gt;Order&lt;/div&gt;" style="swimlane;fontStyle=0;align=center;verticalAlign=top;childLayout=stackLayout;horizontal=1;startSize=55;horizontalStack=0;resizeParent=1;resizeParentMax=0;resizeLast=0;collapsible=0;marginBottom=0;html=1;whiteSpace=wrap;" vertex="1" parent="1">
          <mxGeometry x="550" y="140" width="500" height="190" as="geometry" />
        </mxCell>
        <mxCell id="nfQ-J31ZGW46kdmINkmE-7" value="&lt;div&gt;&lt;br&gt;&lt;/div&gt;#orderProcessingSystem: orderProcessingSystem&lt;div&gt;#orderId:&amp;nbsp; String&lt;/div&gt;&lt;div&gt;#customerId :&amp;nbsp; String&lt;/div&gt;&lt;div&gt;&lt;div&gt;&lt;div&gt;&lt;br&gt;&lt;/div&gt;&lt;/div&gt;&lt;/div&gt;" style="text;html=1;strokeColor=none;fillColor=none;align=center;verticalAlign=middle;spacingLeft=4;spacingRight=4;overflow=hidden;rotatable=0;points=[[0,0.5],[1,0.5]];portConstraint=eastwest;whiteSpace=wrap;" vertex="1" parent="nfQ-J31ZGW46kdmINkmE-6">
          <mxGeometry y="55" width="500" height="65" as="geometry" />
        </mxCell>
        <mxCell id="nfQ-J31ZGW46kdmINkmE-11" value="" style="line;strokeWidth=1;fillColor=none;align=left;verticalAlign=middle;spacingTop=-1;spacingLeft=3;spacingRight=3;rotatable=0;labelPosition=right;points=[];portConstraint=eastwest;" vertex="1" parent="nfQ-J31ZGW46kdmINkmE-6">
          <mxGeometry y="120" width="500" height="8" as="geometry" />
        </mxCell>
        <mxCell id="nfQ-J31ZGW46kdmINkmE-13" value="+Order(orderProcessingSystem: OrderProcessingSystem,orderId :String,customerId:String)&lt;div&gt;+process()&lt;/div&gt;&lt;div&gt;+updateStatus(Status : String)&lt;/div&gt;" style="text;html=1;strokeColor=none;fillColor=none;align=left;verticalAlign=middle;spacingLeft=4;spacingRight=4;overflow=hidden;rotatable=0;points=[[0,0.5],[1,0.5]];portConstraint=eastwest;whiteSpace=wrap;" vertex="1" parent="nfQ-J31ZGW46kdmINkmE-6">
          <mxGeometry y="128" width="500" height="62" as="geometry" />
        </mxCell>
        <mxCell id="nfQ-J31ZGW46kdmINkmE-15" value="&lt;p style=&quot;margin:0px;margin-top:4px;text-align:center;&quot;&gt;&lt;i&gt;&amp;lt;&amp;lt;Interface&amp;gt;&amp;gt;&lt;/i&gt;&lt;br&gt;&lt;b&gt;OrderProcessingSystem&lt;/b&gt;&lt;/p&gt;&lt;hr size=&quot;1&quot; style=&quot;border-style:solid;&quot;&gt;&lt;p style=&quot;margin:0px;margin-left:4px;&quot;&gt;&lt;br&gt;&lt;/p&gt;&lt;hr size=&quot;1&quot; style=&quot;border-style:solid;&quot;&gt;&lt;p style=&quot;margin:0px;margin-left:4px;&quot;&gt;+processOrder(orderId&amp;nbsp; : String)&lt;/p&gt;&lt;p style=&quot;margin:0px;margin-left:4px;&quot;&gt;+updateOrderStatus(orderId : String , customerId : String&lt;/p&gt;&lt;p style=&quot;margin:0px;margin-left:4px;&quot;&gt;+notifyCustomer(customerId : String , Message : String&lt;/p&gt;" style="verticalAlign=top;align=left;overflow=fill;html=1;whiteSpace=wrap;" vertex="1" parent="1">
          <mxGeometry x="90" y="380" width="310" height="120" as="geometry" />
        </mxCell>
        <mxCell id="nfQ-J31ZGW46kdmINkmE-17" value="StandardOrder" style="swimlane;fontStyle=1;align=center;verticalAlign=top;childLayout=stackLayout;horizontal=1;startSize=26;horizontalStack=0;resizeParent=1;resizeParentMax=0;resizeLast=0;collapsible=1;marginBottom=0;whiteSpace=wrap;html=1;" vertex="1" parent="1">
          <mxGeometry x="450" y="380" width="550" height="120" as="geometry" />
        </mxCell>
        <mxCell id="nfQ-J31ZGW46kdmINkmE-19" value="" style="line;strokeWidth=1;fillColor=none;align=left;verticalAlign=middle;spacingTop=-1;spacingLeft=3;spacingRight=3;rotatable=0;labelPosition=right;points=[];portConstraint=eastwest;strokeColor=inherit;" vertex="1" parent="nfQ-J31ZGW46kdmINkmE-17">
          <mxGeometry y="26" width="550" height="8" as="geometry" />
        </mxCell>
        <mxCell id="nfQ-J31ZGW46kdmINkmE-20" value="+StandardOrder(orderProcessingSystem: OrderProcessingSystem,orderId :String,customerId:String)&lt;div&gt;+process()&lt;/div&gt;&lt;div&gt;+updateStatus(Status : String)&lt;/div&gt;" style="text;strokeColor=none;fillColor=none;align=left;verticalAlign=top;spacingLeft=4;spacingRight=4;overflow=hidden;rotatable=0;points=[[0,0.5],[1,0.5]];portConstraint=eastwest;whiteSpace=wrap;html=1;" vertex="1" parent="nfQ-J31ZGW46kdmINkmE-17">
          <mxGeometry y="34" width="550" height="86" as="geometry" />
        </mxCell>
        <mxCell id="nfQ-J31ZGW46kdmINkmE-21" value="CustomOrder" style="swimlane;fontStyle=1;align=center;verticalAlign=top;childLayout=stackLayout;horizontal=1;startSize=26;horizontalStack=0;resizeParent=1;resizeParentMax=0;resizeLast=0;collapsible=1;marginBottom=0;whiteSpace=wrap;html=1;" vertex="1" parent="1">
          <mxGeometry x="1030" y="380" width="740" height="120" as="geometry" />
        </mxCell>
        <mxCell id="nfQ-J31ZGW46kdmINkmE-22" value="-description : String&lt;div&gt;-deadline : String&lt;/div&gt;" style="text;strokeColor=none;fillColor=none;align=left;verticalAlign=top;spacingLeft=4;spacingRight=4;overflow=hidden;rotatable=0;points=[[0,0.5],[1,0.5]];portConstraint=eastwest;whiteSpace=wrap;html=1;" vertex="1" parent="nfQ-J31ZGW46kdmINkmE-21">
          <mxGeometry y="26" width="740" height="34" as="geometry" />
        </mxCell>
        <mxCell id="nfQ-J31ZGW46kdmINkmE-23" value="" style="line;strokeWidth=1;fillColor=none;align=left;verticalAlign=middle;spacingTop=-1;spacingLeft=3;spacingRight=3;rotatable=0;labelPosition=right;points=[];portConstraint=eastwest;strokeColor=inherit;" vertex="1" parent="nfQ-J31ZGW46kdmINkmE-21">
          <mxGeometry y="60" width="740" height="8" as="geometry" />
        </mxCell>
        <mxCell id="nfQ-J31ZGW46kdmINkmE-24" value="+CustomOrder(orderProcessingSystem: OrderProcessingSystem,orderId :String,customerId:String,description : String,deadline : String)&lt;div&gt;+process()&lt;/div&gt;&lt;div&gt;+updateStatus(Status : String)&lt;/div&gt;" style="text;strokeColor=none;fillColor=none;align=left;verticalAlign=top;spacingLeft=4;spacingRight=4;overflow=hidden;rotatable=0;points=[[0,0.5],[1,0.5]];portConstraint=eastwest;whiteSpace=wrap;html=1;" vertex="1" parent="nfQ-J31ZGW46kdmINkmE-21">
          <mxGeometry y="68" width="740" height="52" as="geometry" />
        </mxCell>
        <mxCell id="nfQ-J31ZGW46kdmINkmE-30" value="" style="endArrow=none;startArrow=diamondThin;endFill=0;startFill=0;html=1;verticalAlign=bottom;labelBackgroundColor=none;strokeWidth=1;startSize=8;endSize=8;rounded=0;entryX=0.75;entryY=0;entryDx=0;entryDy=0;exitX=0;exitY=0.5;exitDx=0;exitDy=0;" edge="1" parent="1" source="nfQ-J31ZGW46kdmINkmE-7" target="nfQ-J31ZGW46kdmINkmE-15">
          <mxGeometry width="160" relative="1" as="geometry">
            <mxPoint x="780" y="360" as="sourcePoint" />
            <mxPoint x="940" y="360" as="targetPoint" />
          </mxGeometry>
        </mxCell>
        <mxCell id="nfQ-J31ZGW46kdmINkmE-32" value="" style="html=1;verticalAlign=bottom;labelBackgroundColor=none;endArrow=block;endFill=1;rounded=0;exitX=0.5;exitY=0;exitDx=0;exitDy=0;" edge="1" parent="1" source="nfQ-J31ZGW46kdmINkmE-17" target="nfQ-J31ZGW46kdmINkmE-13">
          <mxGeometry width="160" relative="1" as="geometry">
            <mxPoint x="780" y="360" as="sourcePoint" />
            <mxPoint x="940" y="360" as="targetPoint" />
          </mxGeometry>
        </mxCell>
        <mxCell id="nfQ-J31ZGW46kdmINkmE-33" value="" style="html=1;verticalAlign=bottom;labelBackgroundColor=none;endArrow=block;endFill=1;rounded=0;exitX=0.25;exitY=0;exitDx=0;exitDy=0;" edge="1" parent="1" source="nfQ-J31ZGW46kdmINkmE-21" target="nfQ-J31ZGW46kdmINkmE-13">
          <mxGeometry width="160" relative="1" as="geometry">
            <mxPoint x="1000" y="350" as="sourcePoint" />
            <mxPoint x="1160" y="350" as="targetPoint" />
          </mxGeometry>
        </mxCell>
      </root>
    </mxGraphModel>
  </diagram>
</mxfile>
